<svg width="199" height="159" viewBox="0 0 199 159" fill="none" xmlns="http://www.w3.org/2000/svg">
<path d="M73.851 120V78.016H16.123V120H10.235V36.928H16.123V72.768H73.851V36.928H79.739V120H73.851Z" fill="#EC494A"/>
<path d="M79.0335 121.28C67.1722 121.28 57.2308 117.141 49.2095 108.864C41.1882 100.587 37.1775 90.4747 37.1775 78.528C37.1775 66.496 41.1882 56.3413 49.2095 48.064C57.2308 39.7867 67.1722 35.648 79.0335 35.648C90.8948 35.648 100.794 39.7867 108.73 48.064C116.751 56.3413 120.762 66.4533 120.762 78.4C120.762 85.4827 119.268 92.0533 116.282 98.112C113.295 104.171 109.199 109.163 103.994 113.088C124.303 125.12 139.919 132.373 150.842 134.848C156.474 136.213 161.892 136.896 167.098 136.896C172.303 136.896 177.892 136.299 183.866 135.104C189.924 133.909 194.234 132.672 196.794 131.392L198.202 134.72C194.959 136.256 190.223 137.749 183.994 139.2C177.85 140.736 172.047 141.504 166.586 141.504C161.21 141.504 155.45 140.779 149.306 139.328C143.162 137.963 136.762 135.744 130.106 132.672C123.45 129.6 118.287 127.083 114.618 125.12C111.034 123.243 105.828 120.299 99.0015 116.288C92.8575 119.616 86.2015 121.28 79.0335 121.28ZM78.9055 40.896C68.6655 40.896 60.1748 44.5227 53.4335 51.776C46.6922 59.0293 43.3215 67.9467 43.3215 78.528C43.3215 89.024 46.6922 97.8987 53.4335 105.152C60.1748 112.32 68.7082 115.904 79.0335 115.904C84.4095 115.904 89.2735 114.88 93.6255 112.832C83.9828 106.347 76.4735 103.104 71.0975 103.104C68.0255 103.104 65.2095 103.701 62.6495 104.896L60.7295 101.312C63.6308 99.4347 66.8735 98.496 70.4575 98.496C74.0415 98.496 77.5402 99.136 80.9535 100.416C84.3668 101.696 87.2255 103.019 89.5295 104.384C91.9188 105.749 94.9908 107.669 98.7455 110.144C103.695 106.816 107.578 102.379 110.394 96.832C113.295 91.2 114.746 85.056 114.746 78.4C114.746 67.904 111.332 59.0293 104.506 51.776C97.7642 44.5227 89.2308 40.896 78.9055 40.896Z" fill="#EC494A"/>
</svg>
